<svg width="9" height="12" viewBox="0 0 9 12" fill="none" xmlns="http://www.w3.org/2000/svg">
<path d="M8.80005 1.16998V11.4629C8.80005 11.5618 8.77073 11.6585 8.71579 11.7407C8.66085 11.8229 8.58276 11.887 8.4914 11.9248C8.40004 11.9627 8.29951 11.9726 8.20252 11.9533C8.10552 11.934 8.01643 11.8864 7.9465 11.8165L4.55005 8.41998L1.15359 11.8165C1.08367 11.8864 0.994571 11.934 0.897578 11.9533C0.800586 11.9726 0.700052 11.9627 0.608689 11.9249C0.517326 11.887 0.439238 11.8229 0.384301 11.7407C0.329363 11.6585 0.300043 11.5618 0.300049 11.4629V1.16998C0.300057 0.904769 0.405416 0.65042 0.592951 0.462885C0.780485 0.27535 1.03483 0.169991 1.30005 0.169983H7.80005C8.06526 0.169991 8.31961 0.27535 8.50715 0.462885C8.69468 0.65042 8.80004 0.904769 8.80005 1.16998Z" fill="white"/>
</svg>
