<svg width="13" height="12" viewBox="0 0 13 12" fill="none" xmlns="http://www.w3.org/2000/svg">
<path d="M12.1907 4.13289C12.1907 6.54622 9.12286 8.47353 6.67187 11.1672C6.62499 11.2194 6.56766 11.2611 6.50359 11.2897C6.43953 11.3182 6.37016 11.333 6.30002 11.333C6.22987 11.333 6.16051 11.3182 6.09645 11.2897C6.03238 11.2611 5.97504 11.2194 5.92816 11.1672C3.47716 8.47353 0.409424 6.54622 0.409424 4.13289C0.409424 1.36812 4.17755 -0.610524 6.19696 2.22017C6.2087 2.23702 6.22429 2.25084 6.24244 2.26047C6.26059 2.2701 6.28077 2.27527 6.30131 2.27554C6.32185 2.27582 6.34216 2.27119 6.36056 2.26205C6.37896 2.25291 6.39492 2.23951 6.4071 2.22298C8.53998 -0.611865 12.1907 1.36726 12.1907 4.13289Z" fill="white"/>
</svg>
