<svg width="13" height="12" viewBox="0 0 13 12" fill="none" xmlns="http://www.w3.org/2000/svg">
<path d="M11.9739 5.25971L8.77782 7.58125L9.99654 11.3342C10.0125 11.3833 10.0166 11.4355 10.0085 11.4865C10.0004 11.5375 9.98041 11.5859 9.95006 11.6276C9.91971 11.6694 9.8799 11.7034 9.83389 11.7268C9.78788 11.7502 9.73698 11.7624 9.68535 11.7624C9.6167 11.762 9.54997 11.7397 9.49492 11.6987L6.30208 9.37954L3.10921 11.6987C3.05417 11.7397 2.98743 11.762 2.91878 11.7624C2.86716 11.7624 2.81626 11.7502 2.77025 11.7268C2.72425 11.7034 2.68444 11.6694 2.65409 11.6276C2.62374 11.5859 2.6037 11.5375 2.59562 11.4865C2.58754 11.4355 2.59164 11.3833 2.60759 11.3342L3.82631 7.58125L0.630267 5.25971C0.574564 5.21926 0.533099 5.1622 0.511817 5.09673C0.490534 5.03126 0.490527 4.96073 0.511796 4.89526C0.533064 4.82978 0.574517 4.77272 0.630212 4.73225C0.685906 4.69179 0.752983 4.66999 0.821827 4.66999H4.77172L5.99204 0.912182C6.01331 0.846707 6.05477 0.789647 6.11046 0.749181C6.16616 0.708715 6.23324 0.68692 6.30208 0.68692C6.37093 0.68692 6.438 0.708715 6.4937 0.749181C6.5494 0.789647 6.59085 0.846707 6.61213 0.912182L7.83242 4.66999H11.7823C11.8511 4.67001 11.9182 4.69182 11.9739 4.73229C12.0296 4.77275 12.071 4.82981 12.0923 4.89528C12.1135 4.96074 12.1135 5.03126 12.0923 5.09673C12.071 5.16219 12.0296 5.21925 11.9739 5.25971Z" fill="white"/>
</svg>
