<svg width="13" height="12" viewBox="0 0 13 12" fill="none" xmlns="http://www.w3.org/2000/svg">
<path d="M3.80005 5.16998V7.16998C3.80005 7.30259 3.74737 7.42977 3.6536 7.52354C3.55983 7.6173 3.43266 7.66998 3.30005 7.66998H1.30005C1.16744 7.66998 1.04026 7.6173 0.946496 7.52354C0.852727 7.42977 0.800049 7.30259 0.800049 7.16998V5.16998C0.800049 5.03737 0.852727 4.9102 0.946496 4.81643C1.04026 4.72266 1.16744 4.66998 1.30005 4.66998H3.30005C3.43266 4.66998 3.55983 4.72266 3.6536 4.81643C3.74737 4.9102 3.80005 5.03737 3.80005 5.16998ZM3.30005 8.66998H1.30005C1.16744 8.66998 1.04026 8.72266 0.946496 8.81643C0.852727 8.9102 0.800049 9.03737 0.800049 9.16998V11.17C0.800049 11.3026 0.852727 11.4298 0.946496 11.5235C1.04026 11.6173 1.16744 11.67 1.30005 11.67H3.30005C3.43266 11.67 3.55983 11.6173 3.6536 11.5235C3.74737 11.4298 3.80005 11.3026 3.80005 11.17V9.16998C3.80005 9.03737 3.74737 8.9102 3.6536 8.81643C3.55983 8.72266 3.43266 8.66998 3.30005 8.66998ZM3.30005 0.669983H1.30005C1.16744 0.669983 1.04026 0.722661 0.946496 0.81643C0.852727 0.910198 0.800049 1.03737 0.800049 1.16998V3.16998C0.800049 3.30259 0.852727 3.42977 0.946496 3.52354C1.04026 3.6173 1.16744 3.66998 1.30005 3.66998H3.30005C3.43266 3.66998 3.55983 3.6173 3.6536 3.52354C3.74737 3.42977 3.80005 3.30259 3.80005 3.16998V1.16998C3.80005 1.03737 3.74737 0.910198 3.6536 0.81643C3.55983 0.722661 3.43266 0.669983 3.30005 0.669983ZM11.8 3.66998H5.30005C5.16744 3.66998 5.04026 3.72266 4.9465 3.81643C4.85273 3.9102 4.80005 4.03737 4.80005 4.16998V4.66998C4.80005 4.80259 4.85273 4.92977 4.9465 5.02354C5.04026 5.1173 5.16744 5.16998 5.30005 5.16998H11.8C11.9327 5.16998 12.0598 5.1173 12.1536 5.02354C12.2474 4.92977 12.3 4.80259 12.3 4.66998V4.16998C12.3 4.03737 12.2474 3.9102 12.1536 3.81643C12.0598 3.72266 11.9327 3.66998 11.8 3.66998ZM11.8 0.669983H5.30005C5.16744 0.669983 5.04026 0.722661 4.9465 0.81643C4.85273 0.910198 4.80005 1.03737 4.80005 1.16998V1.66998C4.80005 1.80259 4.85273 1.92977 4.9465 2.02354C5.04026 2.1173 5.16744 2.16998 5.30005 2.16998H11.8C11.9327 2.16998 12.0598 2.1173 12.1536 2.02354C12.2474 1.92977 12.3 1.80259 12.3 1.66998V1.16998C12.3 1.03737 12.2474 0.910198 12.1536 0.81643C12.0598 0.722661 11.9327 0.669983 11.8 0.669983ZM11.8 9.66998H5.30005C5.16744 9.66998 5.04026 9.72266 4.9465 9.81643C4.85273 9.9102 4.80005 10.0374 4.80005 10.17V10.67C4.80005 10.8026 4.85273 10.9298 4.9465 11.0235C5.04026 11.1173 5.16744 11.17 5.30005 11.17H11.8C11.9327 11.17 12.0598 11.1173 12.1536 11.0235C12.2474 10.9298 12.3 10.8026 12.3 10.67V10.17C12.3 10.0374 12.2474 9.9102 12.1536 9.81643C12.0598 9.72266 11.9327 9.66998 11.8 9.66998ZM11.8 6.66998H5.30005C5.16744 6.66998 5.04026 6.72266 4.9465 6.81643C4.85273 6.9102 4.80005 7.03737 4.80005 7.16998V7.66998C4.80005 7.80259 4.85273 7.92977 4.9465 8.02354C5.04026 8.1173 5.16744 8.16998 5.30005 8.16998H11.8C11.9327 8.16998 12.0598 8.1173 12.1536 8.02354C12.2474 7.92977 12.3 7.80259 12.3 7.66998V7.16998C12.3 7.03737 12.2474 6.9102 12.1536 6.81643C12.0598 6.72266 11.9327 6.66998 11.8 6.66998Z" fill="white"/>
</svg>
