<svg width="14" height="15" viewBox="0 0 14 15" fill="none" xmlns="http://www.w3.org/2000/svg">
<path d="M12.6693 7.76973L1.95397 14.0056C1.84764 14.0675 1.72687 14.1002 1.60384 14.1005C1.48082 14.1009 1.35988 14.0687 1.25323 14.0074C1.14658 13.9461 1.05798 13.8577 0.996379 13.7512C0.934775 13.6447 0.90234 13.5239 0.902344 13.4008V0.929111C0.90234 0.806083 0.934775 0.685229 0.996379 0.578735C1.05798 0.472241 1.14658 0.383872 1.25323 0.322541C1.35988 0.26121 1.48082 0.229084 1.60384 0.229403C1.72687 0.229722 1.84764 0.262474 1.95397 0.324358L12.6693 6.56022C12.7751 6.6218 12.8629 6.71005 12.9239 6.81617C12.985 6.92229 13.0171 7.04256 13.0171 7.16497C13.0171 7.28738 12.985 7.40766 12.9239 7.51377C12.8629 7.61989 12.7751 7.70815 12.6693 7.76973Z" fill="black"/>
</svg>
